# xmcd CD database file
#
# Track frame offsets:
#	150
#	16081
#	28104
#	45461
#
# Disc length: 798 seconds
#
# Revision: 1
# Processed by: cddbd v1.5.2PL0 Copyright (c) Steve Scherf et al.
# Submitted via: CDex 1.51
#
DISCID=23031c04
DTITLE=Buster Jiggs - Miserably Happy (EP)
DYEAR=2007
DGENRE=Country
TTITLE0=Every Thing You Need Tonight
TTITLE1=Stolen Love
TTITLE2=Unbroken
TTITLE3=Sweet Medication
EXTD=YEAR: 2007
EXTT0=
EXTT1=
EXTT2=
EXTT3=
PLAYORDER=
